<svg width="50" height="50" viewBox="0 0 50 50" fill="none" xmlns="http://www.w3.org/2000/svg">
<path d="M25 0C11.2222 0 0 11.2222 0 25C0 38.7778 11.2222 50 25 50C38.7778 50 50 38.7778 50 25C50 11.2222 38.7778 0 25 0ZM25 46.5556C13.1111 46.5556 3.44444 36.8889 3.44444 25C3.44444 13.1111 13.1111 3.44444 25 3.44444C36.8889 3.44444 46.5556 13.1111 46.5556 25C46.5556 36.8889 36.8889 46.5556 25 46.5556Z" fill="#78AF29"/>
<path d="M22.4453 29.4987L16.612 24.6098L14.4453 27.2209L22.612 34.1654L38.3898 18.2209L35.9453 15.832L22.4453 29.4987Z" fill="#78AF29"/>
</svg>
