<svg width="140" height="39" viewBox="0 0 140 39" fill="none" xmlns="http://www.w3.org/2000/svg">
<path d="M108 18.7349C108 18.7335 107.999 18.7335 107.999 18.732C107.988 18.0336 107.692 17.4101 107.299 16.8125C105.484 14.0464 103.676 11.2759 101.866 8.50685C100.331 6.15971 98.8001 3.80969 97.2608 1.46399C96.7813 0.732492 96.2514 0.385461 95.7229 0.4229C95.1944 0.385461 94.6645 0.732492 94.185 1.46399C92.6457 3.80969 91.115 6.15971 89.58 8.50685C87.77 11.2759 85.9628 14.0464 84.1456 16.8111C83.7525 17.4087 83.4559 18.0336 83.4458 18.7306C83.4458 18.732 83.4443 18.732 83.4443 18.7335C83.4443 18.7349 83.4458 18.7363 83.4458 18.7378C83.4443 18.8803 83.453 19.0243 83.4775 19.1726C83.5883 19.8581 83.8749 20.4456 84.5013 20.7364C85.0845 21.1238 85.7785 20.9697 86.3502 20.2339C87.0255 19.3656 87.6217 18.4339 88.2207 17.508C88.6656 16.8197 89.2128 16.4857 90.025 16.4454C91.9228 16.4655 93.8221 16.4756 95.7214 16.4756C97.6208 16.4756 99.5186 16.4655 101.418 16.4454C102.23 16.4857 102.777 16.8212 103.222 17.508C103.821 18.4339 104.416 19.3656 105.093 20.2339C105.666 20.9697 106.36 21.1223 106.942 20.7364C107.568 20.4441 107.855 19.8581 107.965 19.1726C107.99 19.0243 107.999 18.8789 107.997 18.7378C108 18.7378 108 18.7363 108 18.7349ZM95.7546 12.7015C95.7445 12.7015 95.7344 12.7015 95.7243 12.7015C95.7128 12.7015 95.7027 12.7015 95.6912 12.7015C95.3802 12.7015 95.0691 12.7029 94.7581 12.7043C94.2512 12.7058 93.7444 12.7072 93.2375 12.6986C92.2281 12.6813 91.8163 12.0189 92.3433 11.1794C93.2591 9.71929 94.2239 8.28797 95.193 6.86097C95.3485 6.63201 95.5343 6.5125 95.7229 6.50098C95.9101 6.51106 96.0958 6.63058 96.2528 6.86097C97.2205 8.28797 98.1852 9.71929 99.1025 11.1794C99.6295 12.0204 99.2177 12.6813 98.2083 12.6986C97.7 12.7072 97.1917 12.7072 96.6833 12.7043C96.3738 12.7029 96.0642 12.7015 95.7546 12.7015Z" fill="#408DD5"/>
<path d="M0.0230394 10.6986C0.0230394 8.08218 0.0172795 5.46721 0.0302392 2.8508C0.0316791 2.47209 0.073438 2.08042 0.181435 1.72043C0.450708 0.823337 0.990693 0.412948 1.92091 0.411508C6.62382 0.401428 11.3282 0.443187 16.0311 0.392788C18.2443 0.369749 19.8628 2.24458 20.4158 3.7767C21.0494 5.53201 21.035 7.30892 20.3193 9.04552C20.1019 9.57398 20.1134 9.91813 20.5612 10.3631C23.0999 12.8773 22.8378 17.8624 20.0831 20.1217C19.3747 20.702 18.5669 21.0015 17.6338 21.0001C12.4269 20.99 7.21853 20.9958 2.01019 20.9958C0.787659 20.9958 0 20.1966 0 18.9784C0.00287992 16.2194 0.00143996 13.459 0.00143996 10.7C0.0100797 10.6986 0.0172795 10.6986 0.0230394 10.6986ZM11.1021 17.3714C12.9006 17.3714 14.6977 17.3815 16.4962 17.3685C17.6582 17.3599 18.3897 16.7637 18.6619 15.6564C19.0205 14.1905 18.1507 12.739 16.8533 12.7246C13.0676 12.6814 9.28055 12.6598 5.49345 12.6598C5.1349 12.6598 4.72163 12.788 4.42932 12.9939C3.6071 13.5684 3.26295 14.8702 3.60278 15.8465C3.96709 16.8976 4.64964 17.3671 5.85056 17.3714C7.60156 17.3771 9.35111 17.3714 11.1021 17.3714ZM10.4455 3.97973C8.814 3.97973 7.18253 3.96821 5.55249 3.98981C5.2285 3.99413 4.87139 4.05173 4.59204 4.20149C3.73094 4.66371 3.31335 5.8992 3.57254 7.04685C3.80726 8.09082 4.49556 8.73593 5.59857 8.7388C8.88312 8.74457 12.1691 8.72153 15.4537 8.65241C16.6244 8.62793 17.3616 7.56092 17.2997 6.19007C17.2378 4.80483 16.489 3.98549 15.2693 3.98261C13.6595 3.97541 12.0525 3.97973 10.4455 3.97973Z" fill="#636363"/>
<path d="M38.66 20.8402C36.3359 20.8402 34.0089 20.905 31.6892 20.7984C31.0455 20.7682 30.3298 20.3377 29.8129 19.8956C28.5126 18.7839 27.8402 17.2777 27.8085 15.5858C27.7466 12.3012 27.7581 9.01236 27.8056 5.72781C27.8272 4.19281 28.4435 2.84069 29.4803 1.69736C30.2953 0.797382 31.3148 0.304915 32.5272 0.303475C36.7492 0.302035 40.9712 0.281876 45.1902 0.353874C47.2724 0.388433 48.7268 1.57064 49.706 3.34179C50.2258 4.28209 50.0876 5.26702 49.5591 6.14396C48.9644 7.13177 47.5518 7.18937 46.9787 6.20012C45.9793 4.47216 44.4731 3.98834 42.617 4.01714C39.8825 4.05889 37.1466 4.02866 34.4121 4.02866C32.6511 4.02866 31.5178 5.00351 31.3911 6.7905C31.286 8.27078 31.3249 9.76258 31.322 11.2486C31.3191 12.3272 31.2932 13.4114 31.3839 14.4828C31.538 16.2957 32.6986 17.3526 34.5043 17.38C37.3093 17.4217 40.1158 17.4649 42.9209 17.4505C44.62 17.4419 46.0456 16.8371 46.9729 15.2978C47.4481 14.5087 48.0241 14.2711 48.7095 14.4569C49.2985 14.6167 49.85 15.364 49.9119 16.1071C50.0775 18.0611 48.901 19.2735 47.4265 20.1533C46.6446 20.6213 45.6294 20.8445 44.7035 20.8949" fill="#636363"/>
<path d="M79.457 18.7349C79.457 18.7335 79.4556 18.7335 79.4556 18.732C79.4455 18.0337 79.1489 17.4102 78.7558 16.8126C76.94 14.0478 75.1328 11.2759 73.3214 8.50831C71.7864 6.16117 70.2557 3.81115 68.7164 1.46546C68.2369 0.733957 67.7069 0.386926 67.1785 0.424365C66.65 0.386926 66.1201 0.733957 65.6406 1.46546C64.1027 3.80971 62.572 6.15973 61.037 8.50687C59.227 11.2759 57.4199 14.0464 55.6026 16.8111C55.2095 17.4087 54.9129 18.0337 54.9028 18.7306C54.9028 18.732 54.9014 18.732 54.9014 18.7335C54.9014 18.7349 54.9028 18.7364 54.9028 18.7378C54.9014 18.8804 54.91 19.0243 54.9345 19.1727C55.0454 19.8581 55.3319 20.4456 55.9583 20.7365C56.5415 21.1238 57.2355 20.9697 57.8072 20.2339C58.4826 19.3656 59.0787 18.434 59.6777 17.5081C60.1227 16.8198 60.6699 16.4857 61.482 16.4454C63.3799 16.4655 65.2792 16.4756 67.1785 16.4756C69.0778 16.4756 70.9757 16.4655 72.875 16.4454C73.6871 16.4857 74.2343 16.8212 74.6792 17.5081C75.2783 18.434 75.873 19.3656 76.5498 20.2339C77.1229 20.9697 77.8169 21.1224 78.3987 20.7365C79.025 20.4441 79.3116 19.8581 79.4225 19.1727C79.447 19.0243 79.4556 18.8789 79.4542 18.7378C79.457 18.7378 79.457 18.7364 79.457 18.7349ZM67.2116 12.7015C67.2015 12.7015 67.1914 12.7015 67.1814 12.7015C67.1698 12.7015 67.1598 12.7015 67.1482 12.7015C66.8372 12.7015 66.5262 12.7029 66.2151 12.7044C65.7083 12.7058 65.2014 12.7072 64.6945 12.6986C63.6851 12.6813 63.2733 12.0189 63.8003 11.1794C64.7161 9.71932 65.6809 8.28799 66.65 6.86099C66.8055 6.63204 66.9913 6.51252 67.1799 6.501C67.3671 6.51108 67.5529 6.6306 67.7098 6.86099C68.6775 8.28799 69.6423 9.71932 70.5595 11.1794C71.0865 12.0204 70.6747 12.6813 69.6653 12.6986C69.157 12.7072 68.6487 12.7072 68.1404 12.7044C67.8308 12.7029 67.5212 12.7015 67.2116 12.7015Z" fill="#78AF29"/>
<path d="M5.952 36V30.204H4.824L3.372 34.284L1.92 30.204H0.792V36H1.644V31.632L3.192 36H3.552L5.1 31.632V36H5.952ZM11.3586 36V31.944C11.3586 30.624 10.5906 30.06 9.43856 30.06C8.70656 30.06 8.02256 30.324 7.47056 30.9L7.85456 31.512C8.29856 31.008 8.76656 30.804 9.30656 30.804C10.0626 30.804 10.4946 31.248 10.4946 32.04V33.048C10.1346 32.532 9.55856 32.304 8.97056 32.304C8.02256 32.304 7.21856 33 7.21856 34.212C7.21856 35.424 8.03456 36.144 8.97056 36.144C9.55856 36.144 10.1226 35.904 10.4946 35.376V36H11.3586ZM9.24656 35.52C8.52656 35.52 8.09456 34.944 8.09456 34.224C8.09456 33.504 8.52656 32.94 9.24656 32.94C9.75056 32.94 10.2306 33.192 10.4946 33.684V34.788C10.2306 35.268 9.75056 35.52 9.24656 35.52ZM16.2326 30.204H12.9326V36H13.7846V30.96H16.2326V30.204ZM21.1437 36V31.944C21.1437 30.624 20.3757 30.06 19.2237 30.06C18.4917 30.06 17.8077 30.324 17.2557 30.9L17.6397 31.512C18.0837 31.008 18.5517 30.804 19.0917 30.804C19.8477 30.804 20.2797 31.248 20.2797 32.04V33.048C19.9197 32.532 19.3437 32.304 18.7557 32.304C17.8077 32.304 17.0037 33 17.0037 34.212C17.0037 35.424 17.8197 36.144 18.7557 36.144C19.3437 36.144 19.9077 35.904 20.2797 35.376V36H21.1437ZM19.0317 35.52C18.3117 35.52 17.8797 34.944 17.8797 34.224C17.8797 33.504 18.3117 32.94 19.0317 32.94C19.5357 32.94 20.0157 33.192 20.2797 33.684V34.788C20.0157 35.268 19.5357 35.52 19.0317 35.52ZM24.3858 36.144C25.8138 36.144 26.6058 35.4 26.6058 34.452C26.6058 33.588 25.8498 33.12 25.2018 33.048C25.8738 32.916 26.5098 32.352 26.5098 31.62C26.5098 30.648 25.5858 30.06 24.2658 30.06C23.3778 30.06 22.7418 30.42 22.2978 30.996L22.7778 31.5C23.1498 30.996 23.6418 30.768 24.2898 30.768C25.0698 30.768 25.6338 31.128 25.6338 31.716C25.6338 32.364 25.0698 32.712 24.3018 32.712H23.2338V33.42H24.3138C25.0338 33.42 25.7298 33.6 25.7298 34.392C25.7298 35.016 25.2018 35.436 24.3738 35.436C23.6538 35.436 23.0658 35.148 22.6818 34.68L22.2138 35.196C22.6698 35.76 23.3898 36.144 24.3858 36.144ZM28.7495 36L31.0415 31.692V36H31.8935V30.204H31.0055L28.7495 34.416V30.204H27.8975V36H28.7495ZM34.3276 36V33.372H36.6196V36H37.4716V30.204H36.6196V32.616H34.3276V30.204H33.4756V36H34.3276ZM43.7438 36.144C44.5478 36.144 45.0398 35.832 45.3998 35.376L44.9318 34.788C44.6198 35.196 44.2598 35.376 43.8158 35.376C42.7838 35.376 42.2438 34.332 42.2438 33.096C42.2438 31.86 42.7838 30.828 43.8158 30.828C44.2598 30.828 44.6198 30.996 44.9318 31.416L45.3998 30.828C45.0398 30.384 44.5478 30.06 43.7438 30.06C42.2558 30.06 41.3438 31.38 41.3438 33.096C41.3438 34.812 42.2558 36.144 43.7438 36.144ZM50.5028 36V30.204H46.5068V36H47.3588V30.96H49.6508V36H50.5028ZM54.149 36.144C55.709 36.144 56.513 34.728 56.513 33.096C56.513 31.464 55.709 30.06 54.149 30.06C52.613 30.06 51.797 31.464 51.797 33.096C51.797 34.728 52.613 36.144 54.149 36.144ZM54.149 35.376C53.153 35.376 52.697 34.272 52.697 33.096C52.697 31.932 53.153 30.828 54.149 30.828C55.169 30.828 55.613 31.932 55.613 33.096C55.613 34.272 55.169 35.376 54.149 35.376ZM60.1797 36.144C61.4877 36.144 62.2557 34.908 62.2557 33.096C62.2557 31.272 61.4877 30.06 60.1797 30.06C59.5677 30.06 58.9917 30.444 58.6557 31.032V30.204H57.8037V38.208H58.6557V35.16C59.0157 35.808 59.5917 36.144 60.1797 36.144ZM59.9637 35.376C59.4237 35.376 58.8837 34.92 58.6557 34.416V31.764C58.8837 31.26 59.4237 30.828 59.9637 30.828C60.9117 30.828 61.3557 31.848 61.3557 33.096C61.3557 34.356 60.9117 35.376 59.9637 35.376ZM65.2142 36V30.96H66.5462V30.204H63.0182V30.96H64.3502V36H65.2142ZM68.4643 36L70.7563 31.692V36H71.6083V30.204H70.7203L68.4643 34.416V30.204H67.6123V36H68.4643ZM75.6384 36C76.7544 36 77.3064 35.364 77.3064 34.428C77.3064 33.768 76.8864 33.156 76.2864 33C76.8144 32.832 77.1984 32.388 77.1984 31.692C77.1984 30.804 76.6224 30.204 75.5904 30.204H73.1904V36H75.6384ZM75.4824 35.268H74.0424V33.384H75.4824C76.1184 33.384 76.4184 33.84 76.4184 34.344C76.4184 34.92 76.1064 35.268 75.4824 35.268ZM75.4344 32.664H74.0424V30.924H75.4344C76.0584 30.924 76.3104 31.32 76.3104 31.8C76.3104 32.28 76.0464 32.664 75.4344 32.664ZM79.6088 36V33.372H81.9008V36H82.7528V30.204H81.9008V32.616H79.6088V30.204H78.7568V36H79.6088ZM86.399 36.144C87.959 36.144 88.763 34.728 88.763 33.096C88.763 31.464 87.959 30.06 86.399 30.06C84.863 30.06 84.047 31.464 84.047 33.096C84.047 34.728 84.863 36.144 86.399 36.144ZM86.399 35.376C85.403 35.376 84.947 34.272 84.947 33.096C84.947 31.932 85.403 30.828 86.399 30.828C87.419 30.828 87.863 31.932 87.863 33.096C87.863 34.272 87.419 35.376 86.399 35.376ZM93.3537 30.204H90.0537V36H90.9057V30.96H93.3537V30.204ZM96.4888 36.144C98.0488 36.144 98.8528 34.728 98.8528 33.096C98.8528 31.464 98.0488 30.06 96.4888 30.06C94.9528 30.06 94.1368 31.464 94.1368 33.096C94.1368 34.728 94.9528 36.144 96.4888 36.144ZM96.4888 35.376C95.4928 35.376 95.0368 34.272 95.0368 33.096C95.0368 31.932 95.4928 30.828 96.4888 30.828C97.5088 30.828 97.9528 31.932 97.9528 33.096C97.9528 34.272 97.5088 35.376 96.4888 35.376ZM106.718 36V30.204H102.722V36H103.574V30.96H105.866V36H106.718ZM109.152 36L111.444 31.692V36H112.296V30.204H111.408L109.152 34.416V30.204H108.3V36H109.152ZM115.558 36V30.96H116.89V30.204H113.362V30.96H114.694V36H115.558ZM121.796 36V31.944C121.796 30.624 121.028 30.06 119.876 30.06C119.144 30.06 118.46 30.324 117.908 30.9L118.292 31.512C118.736 31.008 119.204 30.804 119.744 30.804C120.5 30.804 120.932 31.248 120.932 32.04V33.048C120.572 32.532 119.996 32.304 119.408 32.304C118.46 32.304 117.656 33 117.656 34.212C117.656 35.424 118.472 36.144 119.408 36.144C119.996 36.144 120.56 35.904 120.932 35.376V36H121.796ZM119.684 35.52C118.964 35.52 118.532 34.944 118.532 34.224C118.532 33.504 118.964 32.94 119.684 32.94C120.188 32.94 120.668 33.192 120.932 33.684V34.788C120.668 35.268 120.188 35.52 119.684 35.52ZM124.222 36V33.372H126.514V36H127.366V30.204H126.514V32.616H124.222V30.204H123.37V36H124.222ZM129.8 36L132.092 31.692V36H132.944V30.204H132.056L129.8 34.416V30.204H128.948V36H129.8ZM135.318 36L136.482 33.732H137.634V36H138.498V30.204H136.182C135.03 30.204 134.394 30.984 134.394 31.968C134.394 32.916 134.958 33.504 135.618 33.636L134.334 36H135.318ZM136.266 33C135.606 33 135.282 32.568 135.282 31.968C135.282 31.368 135.63 30.936 136.266 30.936H137.634V33H136.266Z" fill="#767676"/>
</svg>
