<svg width="108" height="23" viewBox="0 0 108 23" fill="none" xmlns="http://www.w3.org/2000/svg">
<path d="M108 19.7076C108 19.7061 107.999 19.7061 107.999 19.7045C107.988 18.9579 107.692 18.2914 107.299 17.6526C105.484 14.6955 103.676 11.7338 101.866 8.77358C100.331 6.26443 98.8001 3.75221 97.2608 1.2446C96.7813 0.462607 96.2514 0.091623 95.7229 0.131646C95.1944 0.091623 94.6645 0.462607 94.185 1.2446C92.6457 3.75221 91.115 6.26443 89.58 8.77358C87.77 11.7338 85.9628 14.6955 84.1456 17.651C83.7525 18.2899 83.4559 18.9579 83.4458 19.703C83.4458 19.7045 83.4443 19.7045 83.4443 19.7061C83.4443 19.7076 83.4458 19.7092 83.4458 19.7107C83.4443 19.8631 83.453 20.017 83.4775 20.1756C83.5883 20.9083 83.8749 21.5364 84.5013 21.8473C85.0845 22.2614 85.7785 22.0967 86.3502 21.3101C87.0255 20.3818 87.6217 19.3859 88.2207 18.3961C88.6656 17.6603 89.2128 17.3031 90.025 17.26C91.9228 17.2816 93.8221 17.2924 95.7214 17.2924C97.6208 17.2924 99.5186 17.2816 101.418 17.26C102.23 17.3031 102.777 17.6618 103.222 18.3961C103.821 19.3859 104.416 20.3818 105.093 21.3101C105.666 22.0967 106.36 22.2599 106.942 21.8473C107.568 21.5348 107.855 20.9083 107.965 20.1756C107.99 20.017 107.999 19.8615 107.997 19.7107C108 19.7107 108 19.7092 108 19.7076ZM95.7546 13.2577C95.7445 13.2577 95.7344 13.2577 95.7243 13.2577C95.7128 13.2577 95.7027 13.2577 95.6912 13.2577C95.3802 13.2577 95.0691 13.2593 94.7581 13.2608C94.2512 13.2623 93.7444 13.2639 93.2375 13.2546C92.2281 13.2362 91.8163 12.5281 92.3433 11.6306C93.2591 10.0697 94.2239 8.5396 95.193 7.0141C95.3485 6.76934 95.5343 6.64157 95.7229 6.62926C95.9101 6.64004 96.0958 6.7678 96.2528 7.0141C97.2204 8.5396 98.1852 10.0697 99.1025 11.6306C99.6295 12.5296 99.2177 13.2362 98.2083 13.2546C97.7 13.2639 97.1916 13.2639 96.6833 13.2608C96.3737 13.2593 96.0642 13.2577 95.7546 13.2577Z" fill="#408DD5"/>
<path d="M0.0230394 11.1165C0.0230394 8.3195 0.0172795 5.52403 0.0302392 2.72702C0.0316791 2.32217 0.073438 1.90347 0.181435 1.51863C0.450708 0.559613 0.990693 0.120897 1.92091 0.119357C6.62382 0.108582 11.3282 0.153223 16.0311 0.0993459C18.2443 0.0747162 19.8628 2.07895 20.4158 3.71683C21.0494 5.5933 21.035 7.49286 20.3193 9.34932C20.1019 9.91427 20.1134 10.2822 20.5612 10.7578C23.0999 13.4455 22.8378 18.7748 20.0831 21.19C19.3747 21.8104 18.5669 22.1306 17.6338 22.129C12.4269 22.1183 7.21853 22.1244 2.01019 22.1244C0.787659 22.1244 0 21.2701 0 19.9678C0.00287992 17.0184 0.00143996 14.0674 0.00143996 11.118C0.0100797 11.1165 0.0172795 11.1165 0.0230394 11.1165ZM11.1021 18.2499C12.9006 18.2499 14.6977 18.2606 16.4962 18.2468C17.6582 18.2376 18.3897 17.6003 18.6619 16.4165C19.0205 14.8494 18.1507 13.2978 16.8533 13.2824C13.0676 13.2362 9.28055 13.2131 5.49345 13.2131C5.1349 13.2131 4.72163 13.3501 4.42932 13.5702C3.6071 14.1844 3.26295 15.576 3.60278 16.6197C3.96709 17.7434 4.64964 18.2452 5.85056 18.2499C7.60156 18.256 9.35111 18.2499 11.1021 18.2499ZM10.4455 3.93388C8.814 3.93388 7.18253 3.92156 5.55249 3.94465C5.2285 3.94927 4.87139 4.01084 4.59204 4.17094C3.73094 4.66507 3.31335 5.98583 3.57254 7.2127C3.80726 8.32873 4.49556 9.01836 5.59857 9.02144C8.88312 9.0276 12.1691 9.00297 15.4537 8.92908C16.6244 8.90291 17.3616 7.76225 17.2997 6.29678C17.2378 4.81593 16.489 3.94003 15.2693 3.93695C13.6595 3.92926 12.0525 3.93388 10.4455 3.93388Z" fill="#636363"/>
<path d="M38.6597 21.9582C36.3356 21.9582 34.0086 22.0275 31.6889 21.9135C31.0452 21.8812 30.3295 21.4209 29.8126 20.9484C28.5123 19.76 27.8398 18.1498 27.8082 16.3411C27.7462 12.8298 27.7578 9.31393 27.8053 5.80267C27.8269 4.16172 28.4432 2.71626 29.48 1.49402C30.295 0.531922 31.3145 0.00546335 32.5269 0.00392399C36.7489 0.00238464 40.9709 -0.0191663 45.1899 0.0578014C47.2721 0.0947458 48.7265 1.35855 49.7057 3.25196C50.2255 4.25716 50.0872 5.31007 49.5588 6.24754C48.9641 7.30354 47.5515 7.36511 46.9784 6.30758C45.979 4.46035 44.4728 3.94313 42.6167 3.97392C39.8822 4.01856 37.1463 3.98623 34.4118 3.98623C32.6508 3.98623 31.5175 5.02837 31.3908 6.93871C31.2857 8.52117 31.3246 10.1159 31.3217 11.7045C31.3188 12.8575 31.2929 14.0167 31.3836 15.1619C31.5377 17.1 32.6983 18.2299 34.504 18.2591C37.309 18.3038 40.1155 18.3499 42.9206 18.3345C44.6197 18.3253 46.0453 17.6788 46.9726 16.0332C47.4478 15.1896 48.0238 14.9357 48.7092 15.1342C49.2981 15.3051 49.8497 16.104 49.9116 16.8983C50.0772 18.9872 48.9007 20.2834 47.4262 21.2239C46.6443 21.7242 45.6291 21.9628 44.7032 22.0167" fill="#636363"/>
<path d="M79.457 19.7077C79.457 19.7061 79.4556 19.7061 79.4556 19.7046C79.4455 18.958 79.1489 18.2915 78.7558 17.6526C76.94 14.6971 75.1328 11.7338 73.3214 8.77517C71.7864 6.26602 70.2557 3.75379 68.7164 1.24619C68.2369 0.464194 67.707 0.0932099 67.1785 0.133233C66.65 0.0932099 66.1201 0.464194 65.6406 1.24619C64.1027 3.75225 62.572 6.26448 61.037 8.77363C59.227 11.7338 57.4199 14.6955 55.6026 17.6511C55.2095 18.2899 54.9129 18.958 54.9028 19.703C54.9028 19.7046 54.9014 19.7046 54.9014 19.7061C54.9014 19.7077 54.9028 19.7092 54.9028 19.7107C54.9014 19.8631 54.91 20.0171 54.9345 20.1756C55.0454 20.9084 55.3319 21.5364 55.9583 21.8474C56.5415 22.2614 57.2355 22.0967 57.8072 21.3101C58.4826 20.3819 59.0787 19.3859 59.6777 18.3961C60.1227 17.6603 60.6699 17.3032 61.482 17.2601C63.3799 17.2816 65.2792 17.2924 67.1785 17.2924C69.0778 17.2924 70.9757 17.2816 72.875 17.2601C73.6871 17.3032 74.2343 17.6619 74.6792 18.3961C75.2783 19.3859 75.873 20.3819 76.5498 21.3101C77.1229 22.0967 77.8169 22.2599 78.3987 21.8474C79.0251 21.5349 79.3116 20.9084 79.4225 20.1756C79.447 20.0171 79.4556 19.8616 79.4542 19.7107C79.457 19.7107 79.457 19.7092 79.457 19.7077ZM67.2116 13.2578C67.2015 13.2578 67.1914 13.2578 67.1814 13.2578C67.1698 13.2578 67.1598 13.2578 67.1482 13.2578C66.8372 13.2578 66.5262 13.2593 66.2152 13.2608C65.7083 13.2624 65.2014 13.2639 64.6946 13.2547C63.6851 13.2362 63.2733 12.5281 63.8003 11.6307C64.7161 10.0698 65.6809 8.53965 66.65 7.01415C66.8055 6.76939 66.9913 6.64162 67.1799 6.62931C67.3671 6.64008 67.5529 6.76785 67.7098 7.01415C68.6775 8.53965 69.6423 10.0698 70.5595 11.6307C71.0865 12.5297 70.6747 13.2362 69.6653 13.2547C69.157 13.2639 68.6487 13.2639 68.1404 13.2608C67.8308 13.2593 67.5212 13.2578 67.2116 13.2578Z" fill="#78AF29"/>
</svg>
