<svg width="19" height="18" viewBox="0 0 19 18" fill="none" xmlns="http://www.w3.org/2000/svg">
<path d="M12.9472 10.5621C13.4188 10.5621 13.864 10.7671 14.2331 11.1508L16.3211 13.2443C16.7053 13.6241 16.9071 14.0759 16.9071 14.5472C16.9071 15.0145 16.7092 15.4703 16.3327 15.8617C16.1693 16.033 16.0021 16.1962 15.8383 16.3519C15.5988 16.5837 15.3706 16.7999 15.1727 17.0394C15.1688 17.0472 15.1614 17.0506 15.1576 17.0584C14.5793 17.685 13.8411 18.0005 12.9624 18.0005C12.8863 18.0005 12.8025 17.9966 12.7225 17.9927C11.4177 17.909 10.2498 17.4188 9.37463 17.0049C7.08436 15.8992 5.07936 14.3305 3.4132 12.3436C2.03964 10.6951 1.11904 9.15655 0.502717 7.4959C0.251605 6.82008 -0.0755755 5.7865 0.0156201 4.67739C0.0765613 3.98991 0.35447 3.39738 0.841135 2.91101L2.1343 1.60857L2.14208 1.6008C2.52242 1.23613 2.97148 1.04236 3.43567 1.04236C3.89986 1.04236 4.34115 1.23613 4.71025 1.6008C4.95747 1.82866 5.19735 2.07163 5.42555 2.30726C5.53965 2.42852 5.66153 2.55022 5.77952 2.66803L5.77953 2.66804L6.81812 3.70508C7.61727 4.50261 7.61727 5.53576 6.81812 6.33371C6.7118 6.43988 6.60505 6.55036 6.49872 6.65652C6.21736 6.94135 5.92821 7.23783 5.61616 7.52266C5.84825 8.03535 6.16808 8.54071 6.64351 9.14101C7.62505 10.3455 8.64809 11.2759 9.77442 11.9902C9.88463 12.0588 10.0139 12.1235 10.1509 12.1917C10.246 12.2409 10.3449 12.2905 10.4439 12.3436L11.6463 11.1473C12.0305 10.7637 12.4792 10.5621 12.9472 10.5621Z" fill="#767676"/>
<path d="M9.72829 4.28134C10.725 4.44836 11.6304 4.91962 12.3535 5.64119C13.0766 6.36276 13.5442 7.26687 13.7154 8.26248C13.7573 8.51322 13.9743 8.688 14.2215 8.688C14.2518 8.688 14.2786 8.68412 14.3088 8.68023C14.5902 8.63449 14.7769 8.36865 14.7311 8.0877C14.5258 6.88365 13.9548 5.78576 13.0839 4.91574C12.213 4.04571 11.1131 3.47605 9.90722 3.27106C9.62586 3.22532 9.36308 3.41175 9.3138 3.68881C9.2641 3.96587 9.44692 4.2356 9.72829 4.28134Z" fill="#767676"/>
<path d="M17.9935 7.93984C17.6551 5.95682 16.7189 4.15247 15.281 2.71667C13.843 1.28087 12.0356 0.34611 10.0496 0.00776695C9.77165 -0.0414309 9.5093 0.148456 9.46003 0.425517C9.41422 0.706463 9.60093 0.968851 9.8823 1.01805C11.6552 1.31798 13.2721 2.1578 14.5579 3.43781C15.8437 4.7217 16.6809 6.33616 16.9813 8.10642C17.0232 8.35716 17.2402 8.53194 17.4874 8.53194C17.5177 8.53194 17.5445 8.52806 17.5747 8.52417C17.8526 8.48275 18.0428 8.2169 17.9935 7.93984Z" fill="#767676"/>
</svg>
